<?xml version="1.0" encoding="utf-8"?>
<!-- Generator: Adobe Illustrator 26.3.1, SVG Export Plug-In . SVG Version: 6.00 Build 0)  -->
<svg version="1.1" id="Layer_1" xmlns="http://www.w3.org/2000/svg" xmlns:xlink="http://www.w3.org/1999/xlink" x="0px" y="0px"
	 viewBox="0 0 100 20" style="enable-background:new 0 0 100 20;" xml:space="preserve">
<style type="text/css">
	.st0{fill:#D3112B;}
	.st1{fill:#FFFFFF;}
</style>
<g id="surface1">
	<g>
		<path class="st0" d="M6.2,19.6V4.9H1.6V0.3h15.3v4.6h-4.5v14.7H6.2z"/>
		<path class="st0" d="M19.9,19.6c-1.3,0-5.2-0.1-5.2-4.3c0-3.6,4.3-4.1,5.6-4.1l4-0.2v-0.6c0-0.7-0.4-1.8-2.9-1.8
			c-1.6,0-3.3,0.5-4.5,1.1l-1.3-3.3c1.2-0.5,3.7-1.3,6.7-1.3c2.9,0,4.5,0.5,5.9,1.6c1.3,1.1,1.8,2.6,1.8,4.9v7.8h-5.3l-0.2-1.9
			l-0.7,0.6C22.9,19,21.7,19.6,19.9,19.6z M24.2,15.9v-3L22.2,13c-1.4,0.1-2.2,0.7-2.2,1.8c0,1.1,0.8,1.8,2.1,1.8
			C23.2,16.5,24,16,24.2,15.9L24.2,15.9z M49,19.4l0.1,0.1h-6.4l-2.7-4.3l-2.7,4.3h-6.4c0,0,0-0.1,0.1-0.1c0.6-0.7,4.5-5.2,12.6-7
			 M51.5,1.9l-6.4,7.8L45,9.8c-2.7,0.4-5.5,1.1-8.6,2.4l-5.1-6.6h6.4l2.1,4.2l5.4-7.9H51.5z"/>
	</g>
	<path class="st1" d="M63.6,0.3h-6.8l-3.4,9.4c1.7,0.2,3.3,0.4,4.7,0.8l2-7.2l2.4,8.4c1.8,1.1,2.4,1.8,2.5,1.8
		c-4.6-1.3-8.7-1.9-12.3-2L50,19.4l0,0.1h6l0.8-3h6.6l0.8,3h6.3L63.6,0.3z M77.6,19.6c-3.8,0-7.9-2.2-7.9-7.2s4.1-7.2,7.9-7.2
		c2.5,0,4.2,0.7,4.9,0.9l-0.8,3.9c-0.6-0.3-1.7-0.7-3-0.7c-1.9,0-3.2,1.2-3.2,2.9c0,1.8,1.3,2.9,3.4,2.9c1.2,0,2.2-0.4,2.8-0.7l1,4
		C82,18.8,80.4,19.6,77.6,19.6z M91,19.6c-1.7,0-2.9-0.4-3.8-1.2c-0.8-0.7-1.1-2-1.1-3.9V9.8h-2.4V5.6h2.4V1.9h5.7v3.7h3.1v4.2h-3.1
		v4c0,1.4,1.1,1.4,1.6,1.4c0.4,0,1.2-0.1,1.5-0.1l-0.1,4C94.1,19.3,92.6,19.6,91,19.6z M96.4,18.1c0-0.6,0.5-1,1-1c0.6,0,1,0.4,1,1
		c0,0.6-0.5,1-1,1C96.9,19.1,96.4,18.7,96.4,18.1z M97.5,19c0.5,0,0.8-0.4,0.8-0.8c0-0.5-0.4-0.8-0.8-0.8c-0.5,0-0.8,0.4-0.8,0.8
		C96.6,18.6,97,19,97.5,19z M97.2,18.7h-0.1v-1.1h0.4c0.3,0,0.4,0.1,0.4,0.3c0,0.2-0.1,0.3-0.3,0.3l0.3,0.5h-0.2l-0.3-0.5h-0.2V18.7
		z M97.5,18.1c0.2,0,0.3,0,0.3-0.2c0-0.1-0.1-0.2-0.3-0.2h-0.2v0.3H97.5z"/>
</g>
</svg>
